OHamburgC-ItalicCondensed.ufo
<glyph name="exclam" format="2">
  <advance width="229"/>
  <unicode hex="0021"/>
  <outline>
    <contour>
      <point x="51" y="-8" type="curve" smooth="yes"/>
      <point x="74" y="-8"/>
      <point x="95" y="11"/>
      <point x="105" y="34" type="curve" smooth="yes"/>
      <point x="116" y="57"/>
      <point x="102" y="76"/>
      <point x="75" y="76" type="curve" smooth="yes"/>
      <point x="52" y="76"/>
      <point x="28" y="57"/>
      <point x="21" y="34" type="curve" smooth="yes"/>
      <point x="15" y="11"/>
      <point x="28" y="-8"/>
    </contour>
    <contour>
      <point x="73" y="176" type="curve"/>
      <point x="135" y="184" type="line"/>
      <point x="171" y="319"/>
      <point x="224" y="475"/>
      <point x="284" y="630" type="curve"/>
      <point x="172" y="618" type="line"/>
      <point x="148" y="467"/>
      <point x="114" y="307"/>
    </contour>
  </outline>
</glyph>
<glyph name="zero" format="2">
  <advance width="508"/>
  <unicode hex="0030"/>
  <outline>
    <contour>
      <point x="198" y="-10" type="curve" smooth="yes"/>
      <point x="358" y="-10"/>
      <point x="472" y="110"/>
      <point x="472" y="280" type="curve" smooth="yes"/>
      <point x="472" y="377"/>
      <point x="406" y="446"/>
      <point x="312" y="446" type="curve" smooth="yes"/>
      <point x="157" y="446"/>
      <point x="48" y="331"/>
      <point x="48" y="168" type="curve" smooth="yes"/>
      <point x="48" y="64"/>
      <point x="110" y="-10"/>
    </contour>
    <contour>
      <point x="216" y="20" type="curve" smooth="yes"/>
      <point x="157" y="20"/>
      <point x="115" y="77"/>
      <point x="115" y="158" type="curve" smooth="yes"/>
      <point x="115" y="309"/>
      <point x="190" y="416"/>
      <point x="296" y="416" type="curve" smooth="yes"/>
      <point x="359" y="416"/>
      <point x="406" y="362"/>
      <point x="406" y="286" type="curve" smooth="yes"/>
      <point x="406" y="130"/>
      <point x="326" y="20"/>
    </contour>
  </outline>
</glyph>
<glyph name="six" format="2">
  <advance width="507"/>
  <unicode hex="0036"/>
  <outline>
    <contour>
      <point x="187" y="-16" type="curve" smooth="yes"/>
      <point x="296" y="-16"/>
      <point x="405" y="65"/>
      <point x="426" y="180" type="curve" smooth="yes"/>
      <point x="445" y="286"/>
      <point x="400" y="358"/>
      <point x="299" y="358" type="curve" smooth="yes"/>
      <point x="261" y="358"/>
      <point x="220" y="346"/>
      <point x="200" y="330" type="curve"/>
      <point x="210" y="307" type="line"/>
      <point x="234" y="322"/>
      <point x="261" y="333"/>
      <point x="276" y="333" type="curve" smooth="yes"/>
      <point x="347" y="333"/>
      <point x="370" y="270"/>
      <point x="355" y="176" type="curve" smooth="yes"/>
      <point x="341" y="87"/>
      <point x="276" y="24"/>
      <point x="208" y="24" type="curve" smooth="yes"/>
      <point x="129" y="24"/>
      <point x="103" y="124"/>
      <point x="130" y="265" type="curve" smooth="yes"/>
      <point x="161" y="427"/>
      <point x="364" y="598"/>
      <point x="598" y="671" type="curve"/>
      <point x="594" y="705" type="line"/>
      <point x="329" y="621"/>
      <point x="93" y="428"/>
      <point x="54" y="233" type="curve" smooth="yes"/>
      <point x="25" y="87"/>
      <point x="70" y="-16"/>
    </contour>
  </outline>
</glyph>
<glyph name="semicolon" format="2">
  <advance width="284"/>
  <unicode hex="003B"/>
  <outline>
    <contour>
      <point x="150" y="308" type="curve"/>
      <point x="180" y="301"/>
      <point x="205" y="316"/>
      <point x="216" y="341" type="curve" smooth="yes"/>
      <point x="227" y="365"/>
      <point x="219" y="390"/>
      <point x="189" y="397" type="curve" smooth="yes"/>
      <point x="158" y="404"/>
      <point x="133" y="389"/>
      <point x="123" y="365" type="curve" smooth="yes"/>
      <point x="112" y="340"/>
      <point x="119" y="315"/>
    </contour>
    <contour>
      <point x="-8" y="-106" type="line"/>
      <point x="57" y="-84"/>
      <point x="115" y="-34"/>
      <point x="143" y="12" type="curve" smooth="yes"/>
      <point x="183" y="82"/>
      <point x="189" y="143"/>
      <point x="146" y="161" type="curve" smooth="yes"/>
      <point x="125" y="186"/>
      <point x="97" y="160"/>
      <point x="83" y="135" type="curve" smooth="yes"/>
      <point x="67" y="109"/>
      <point x="64" y="83"/>
      <point x="89" y="74" type="curve" smooth="yes"/>
      <point x="117" y="63"/>
      <point x="120" y="26"/>
      <point x="96" y="-13" type="curve" smooth="yes"/>
      <point x="84" y="-34"/>
      <point x="37" y="-62"/>
      <point x="-16" y="-82" type="curve"/>
    </contour>
  </outline>
</glyph>
<glyph name="question" format="2">
  <advance width="381"/>
  <unicode hex="003F"/>
  <outline>
    <contour>
      <point x="160" y="170" type="curve" smooth="yes"/>
      <point x="169" y="170"/>
      <point x="206" y="184"/>
      <point x="251" y="203" type="curve"/>
      <point x="252" y="216" type="line"/>
      <point x="221" y="217" type="line" smooth="yes"/>
      <point x="196" y="218"/>
      <point x="183" y="236"/>
      <point x="190" y="260" type="curve" smooth="yes"/>
      <point x="214" y="347"/>
      <point x="356" y="346"/>
      <point x="392" y="466" type="curve"/>
      <point x="409" y="527"/>
      <point x="378" y="571"/>
      <point x="317" y="571" type="curve" smooth="yes"/>
      <point x="288" y="571"/>
      <point x="239" y="554"/>
      <point x="194" y="530" type="curve" smooth="yes"/>
      <point x="155" y="508"/>
      <point x="123" y="471"/>
      <point x="114" y="440" type="curve" smooth="yes"/>
      <point x="106" y="409"/>
      <point x="181" y="423"/>
      <point x="190" y="454" type="curve" smooth="yes"/>
      <point x="195" y="470"/>
      <point x="187" y="466"/>
      <point x="191" y="481" type="curve" smooth="yes"/>
      <point x="198" y="508"/>
      <point x="227" y="527"/>
      <point x="255" y="527" type="curve" smooth="yes"/>
      <point x="305" y="527"/>
      <point x="326" y="500"/>
      <point x="314" y="460" type="curve" smooth="yes"/>
      <point x="269" y="317"/>
      <point x="134" y="317"/>
      <point x="110" y="233" type="curve" smooth="yes"/>
      <point x="100" y="196"/>
      <point x="124" y="170"/>
    </contour>
    <contour>
      <point x="120" y="-6" type="curve" smooth="yes"/>
      <point x="142" y="-6"/>
      <point x="165" y="12"/>
      <point x="171" y="34" type="curve" smooth="yes"/>
      <point x="177" y="56"/>
      <point x="164" y="74"/>
      <point x="142" y="74" type="curve" smooth="yes"/>
      <point x="120" y="74"/>
      <point x="97" y="56"/>
      <point x="91" y="34" type="curve" smooth="yes"/>
      <point x="85" y="12"/>
      <point x="98" y="-6"/>
    </contour>
  </outline>
</glyph>
<glyph name="B" format="2">
  <advance width="577"/>
  <unicode hex="0042"/>
  <anchor x="237" y="0" name="bottom"/>
  <anchor x="138" y="154" name="center"/>
  <anchor x="447" y="616" name="top"/>
  <outline>
    <contour>
      <point x="-12" y="22" type="curve"/>
      <point x="-18" y="0" type="line"/>
      <point x="253" y="0" type="line"/>
      <point x="262" y="37" type="line"/>
      <point x="214" y="37"/>
      <point x="179" y="41"/>
      <point x="171" y="47" type="curve" smooth="yes"/>
      <point x="161" y="55"/>
      <point x="158" y="73"/>
      <point x="162" y="88" type="curve" smooth="yes"/>
      <point x="179" y="152"/>
      <point x="235" y="358"/>
      <point x="293" y="577" type="curve"/>
      <point x="323" y="578"/>
      <point x="362" y="579"/>
      <point x="387" y="579" type="curve"/>
      <point x="397" y="616" type="line"/>
      <point x="146" y="616" type="line"/>
      <point x="140" y="594" type="line"/>
      <point x="172" y="591"/>
      <point x="196" y="581"/>
      <point x="204" y="575" type="curve" smooth="yes"/>
      <point x="211" y="570"/>
      <point x="216" y="549"/>
      <point x="210" y="525" type="curve" smooth="yes"/>
      <point x="187" y="431"/>
      <point x="164" y="338"/>
      <point x="154" y="302" type="curve" smooth="yes"/>
      <point x="114" y="160"/>
      <point x="89" y="71"/>
      <point x="94" y="88" type="curve" smooth="yes"/>
      <point x="88" y="67"/>
      <point x="78" y="47"/>
      <point x="67" y="40" type="curve" smooth="yes"/>
      <point x="57" y="33"/>
      <point x="31" y="28"/>
    </contour>
    <contour>
      <point x="197" y="308" type="line"/>
      <point x="236" y="308"/>
      <point x="263" y="308"/>
      <point x="263" y="308" type="curve" smooth="yes"/>
      <point x="425" y="319"/>
      <point x="536" y="383"/>
      <point x="545" y="476" type="curve" smooth="yes"/>
      <point x="552" y="552"/>
      <point x="497" y="616"/>
      <point x="397" y="616" type="curve"/>
      <point x="387" y="579" type="line"/>
      <point x="450" y="579"/>
      <point x="479" y="523"/>
      <point x="470" y="457" type="curve" smooth="yes"/>
      <point x="460" y="381"/>
      <point x="381" y="338"/>
      <point x="264" y="338" type="curve" smooth="yes"/>
      <point x="204" y="338" type="line"/>
    </contour>
    <contour>
      <point x="253" y="0" type="line"/>
      <point x="395" y="0"/>
      <point x="518" y="82"/>
      <point x="515" y="201" type="curve" smooth="yes"/>
      <point x="513" y="269"/>
      <point x="464" y="322"/>
      <point x="368" y="328" type="curve" smooth="yes"/>
      <point x="186" y="340" type="line"/>
      <point x="177" y="304" type="line"/>
      <point x="219" y="304"/>
      <point x="248" y="304"/>
      <point x="248" y="304" type="curve" smooth="yes"/>
      <point x="371" y="309"/>
      <point x="438" y="259"/>
      <point x="437" y="181" type="curve" smooth="yes"/>
      <point x="436" y="97"/>
      <point x="356" y="37"/>
      <point x="262" y="37" type="curve"/>
    </contour>
  </outline>
</glyph>
<glyph name="C" format="2">
  <advance width="702"/>
  <unicode hex="0043"/>
  <anchor x="283" y="0" name="bottom"/>
  <anchor x="493" y="616" name="top"/>
  <outline>
    <contour>
      <point x="363" y="-8" type="curve" smooth="yes"/>
      <point x="423" y="-8"/>
      <point x="510" y="11"/>
      <point x="571" y="38" type="curve"/>
      <point x="584" y="62"/>
      <point x="613" y="130"/>
      <point x="642" y="201" type="curve"/>
      <point x="610" y="200" type="line"/>
      <point x="565" y="102"/>
      <point x="476" y="32"/>
      <point x="396" y="32" type="curve" smooth="yes"/>
      <point x="240" y="32"/>
      <point x="143" y="173"/>
      <point x="163" y="372" type="curve" smooth="yes"/>
      <point x="176" y="499"/>
      <point x="276" y="588"/>
      <point x="405" y="588" type="curve" smooth="yes"/>
      <point x="528" y="588"/>
      <point x="610" y="510"/>
      <point x="603" y="400" type="curve"/>
      <point x="630" y="400" type="line"/>
      <point x="650" y="472"/>
      <point x="668" y="535"/>
      <point x="673" y="551" type="curve"/>
      <point x="615" y="596"/>
      <point x="512" y="628"/>
      <point x="425" y="628" type="curve" smooth="yes"/>
      <point x="257" y="628"/>
      <point x="116" y="512"/>
      <point x="85" y="348" type="curve" smooth="yes"/>
      <point x="45" y="139"/>
      <point x="160" y="-8"/>
    </contour>
  </outline>
</glyph>
<glyph name="D" format="2">
  <advance width="713"/>
  <unicode hex="0044"/>
  <anchor x="298" y="0" name="bottom"/>
  <anchor x="221" y="308" name="center"/>
  <anchor x="508" y="616" name="top"/>
  <outline>
    <contour>
      <point x="-11" y="23" type="curve"/>
      <point x="-18" y="0" type="line"/>
      <point x="5" y="0"/>
      <point x="67" y="0"/>
      <point x="109" y="0" type="curve" smooth="yes"/>
      <point x="109" y="0"/>
      <point x="170" y="1"/>
      <point x="307" y="-3" type="curve"/>
      <point x="322" y="36" type="line"/>
      <point x="243" y="36"/>
      <point x="181" y="43"/>
      <point x="173" y="53" type="curve" smooth="yes"/>
      <point x="167" y="60"/>
      <point x="166" y="75"/>
      <point x="170" y="89" type="curve" smooth="yes"/>
      <point x="197" y="187"/>
      <point x="273" y="478"/>
      <point x="300" y="576" type="curve"/>
      <point x="367" y="578"/>
      <point x="401" y="580"/>
      <point x="382" y="580" type="curve"/>
      <point x="400" y="619" type="line"/>
      <point x="327" y="617"/>
      <point x="276" y="616"/>
      <point x="276" y="616" type="curve"/>
      <point x="230" y="616"/>
      <point x="177" y="616"/>
      <point x="146" y="616" type="curve"/>
      <point x="139" y="592" type="line"/>
      <point x="175" y="585"/>
      <point x="204" y="578"/>
      <point x="208" y="574" type="curve" smooth="yes"/>
      <point x="215" y="569"/>
      <point x="216" y="549"/>
      <point x="210" y="527" type="curve" smooth="yes"/>
      <point x="152" y="307"/>
      <point x="130" y="217"/>
      <point x="156" y="312" type="curve" smooth="yes"/>
      <point x="165" y="347"/>
      <point x="139" y="255"/>
      <point x="95" y="89" type="curve" smooth="yes"/>
      <point x="89" y="69"/>
      <point x="78" y="49"/>
      <point x="68" y="41" type="curve" smooth="yes"/>
      <point x="60" y="36"/>
      <point x="27" y="28"/>
    </contour>
    <contour>
      <point x="322" y="36" type="curve"/>
      <point x="307" y="-3" type="line"/>
      <point x="490" y="-2"/>
      <point x="643" y="120"/>
      <point x="676" y="292" type="curve" smooth="yes"/>
      <point x="713" y="484"/>
      <point x="598" y="619"/>
      <point x="400" y="619" type="curve"/>
      <point x="382" y="580" type="line"/>
      <point x="527" y="580"/>
      <point x="616" y="451"/>
      <point x="597" y="268" type="curve" smooth="yes"/>
      <point x="583" y="132"/>
      <point x="469" y="36"/>
    </contour>
  </outline>
</glyph>
<glyph name="E" format="2">
  <advance width="593"/>
  <unicode hex="0045"/>
  <anchor x="225" y="0" name="bottom"/>
  <anchor x="458" y="10" name="ogonek"/>
  <anchor x="435" y="616" name="top"/>
  <anchor x="167" y="616" name="topleft"/>
  <outline>
    <contour>
      <point x="-17" y="-2" type="line"/>
      <point x="10" y="-1"/>
      <point x="58" y="0"/>
      <point x="103" y="0" type="curve"/>
      <point x="246" y="0"/>
      <point x="394" y="-1"/>
      <point x="470" y="-3" type="curve"/>
      <point x="495" y="44"/>
      <point x="522" y="110"/>
      <point x="536" y="157" type="curve"/>
      <point x="507" y="157" type="line"/>
      <point x="478" y="90"/>
      <point x="427" y="43"/>
      <point x="382" y="40" type="curve" smooth="yes"/>
      <point x="350" y="38"/>
      <point x="296" y="37"/>
      <point x="239" y="37" type="curve" smooth="yes"/>
      <point x="205" y="37"/>
      <point x="180" y="42"/>
      <point x="172" y="52" type="curve" smooth="yes"/>
      <point x="164" y="62"/>
      <point x="166" y="76"/>
      <point x="170" y="96" type="curve" smooth="yes"/>
      <point x="215" y="265"/>
      <point x="255" y="416"/>
      <point x="299" y="576" type="curve"/>
      <point x="336" y="578"/>
      <point x="375" y="578"/>
      <point x="397" y="578" type="curve" smooth="yes"/>
      <point x="425" y="578"/>
      <point x="458" y="578"/>
      <point x="490" y="576" type="curve" smooth="yes"/>
      <point x="515" y="574"/>
      <point x="530" y="544"/>
      <point x="525" y="499" type="curve"/>
      <point x="551" y="499" type="line"/>
      <point x="563" y="536"/>
      <point x="580" y="586"/>
      <point x="597" y="619" type="curve"/>
      <point x="531" y="617"/>
      <point x="398" y="616"/>
      <point x="277" y="616" type="curve"/>
      <point x="228" y="616"/>
      <point x="176" y="617"/>
      <point x="148" y="618" type="curve"/>
      <point x="140" y="589" type="line"/>
      <point x="173" y="584"/>
      <point x="196" y="581"/>
      <point x="208" y="567" type="curve" smooth="yes"/>
      <point x="214" y="558"/>
      <point x="217" y="544"/>
      <point x="210" y="521" type="curve"/>
      <point x="96" y="91" type="line"/>
      <point x="89" y="67"/>
      <point x="81" y="52"/>
      <point x="68" y="42" type="curve" smooth="yes"/>
      <point x="51" y="29"/>
      <point x="27" y="26"/>
      <point x="-11" y="23" type="curve"/>
    </contour>
    <contour>
      <point x="383" y="206" type="line"/>
      <point x="404" y="206" type="line"/>
      <point x="416" y="272"/>
      <point x="441" y="364"/>
      <point x="463" y="430" type="curve"/>
      <point x="441" y="430" type="line"/>
      <point x="439" y="424"/>
      <point x="430" y="410"/>
      <point x="421" y="396" type="curve"/>
      <point x="395" y="360"/>
      <point x="366" y="336"/>
      <point x="306" y="336" type="curve" smooth="yes"/>
      <point x="186" y="336" type="line"/>
      <point x="174" y="296" type="line"/>
      <point x="294" y="296" type="line" smooth="yes"/>
      <point x="361" y="296"/>
      <point x="378" y="274"/>
      <point x="381" y="242" type="curve" smooth="yes"/>
    </contour>
  </outline>
</glyph>
<glyph name="K" format="2">
  <advance width="618"/>
  <unicode hex="004B"/>
  <anchor x="254" y="0" name="bottom"/>
  <anchor x="464" y="616" name="top"/>
  <outline>
    <contour>
      <point x="-11" y="25" type="curve"/>
      <point x="-18" y="0" type="line"/>
      <point x="234" y="0" type="line"/>
      <point x="239" y="18" type="line"/>
      <point x="206" y="27"/>
      <point x="177" y="29"/>
      <point x="167" y="36" type="curve" smooth="yes"/>
      <point x="158" y="44"/>
      <point x="153" y="58"/>
      <point x="162" y="91" type="curve" smooth="yes"/>
      <point x="178" y="156"/>
      <point x="251" y="424"/>
      <point x="278" y="525" type="curve" smooth="yes"/>
      <point x="286" y="556"/>
      <point x="297" y="572"/>
      <point x="312" y="581" type="curve" smooth="yes"/>
      <point x="328" y="590"/>
      <point x="360" y="594"/>
      <point x="393" y="598" type="curve"/>
      <point x="398" y="616" type="line"/>
      <point x="146" y="616" type="line"/>
      <point x="140" y="592" type="line"/>
      <point x="188" y="585"/>
      <point x="211" y="583"/>
      <point x="215" y="565" type="curve" smooth="yes"/>
      <point x="216" y="556"/>
      <point x="215" y="543"/>
      <point x="210" y="525" type="curve" smooth="yes"/>
      <point x="174" y="382"/>
      <point x="135" y="234"/>
      <point x="95" y="91" type="curve" smooth="yes"/>
      <point x="88" y="66"/>
      <point x="80" y="52"/>
      <point x="68" y="44" type="curve" smooth="yes"/>
      <point x="51" y="33"/>
      <point x="27" y="33"/>
    </contour>
    <contour>
      <point x="188" y="240" type="line"/>
      <point x="515" y="503" type="line"/>
      <point x="561" y="540"/>
      <point x="615" y="574"/>
      <point x="645" y="586" type="curve" smooth="yes"/>
      <point x="662" y="592"/>
      <point x="693" y="597"/>
      <point x="699" y="598" type="curve"/>
      <point x="704" y="616" type="line"/>
      <point x="480" y="616" type="line"/>
      <point x="475" y="598" type="line"/>
      <point x="498" y="593"/>
      <point x="518" y="580"/>
      <point x="512" y="557" type="curve" smooth="yes"/>
      <point x="508" y="543"/>
      <point x="484" y="526"/>
      <point x="462" y="505" type="curve"/>
      <point x="173" y="267" type="line"/>
    </contour>
    <contour>
      <point x="594" y="0" type="line"/>
      <point x="599" y="18" type="line"/>
      <point x="540" y="34"/>
      <point x="507" y="42"/>
      <point x="470" y="93" type="curve"/>
      <point x="306" y="356" type="line"/>
      <point x="247" y="301" type="line"/>
      <point x="297" y="217"/>
      <point x="387" y="72"/>
      <point x="406" y="40" type="curve" smooth="yes"/>
      <point x="427" y="8"/>
      <point x="450" y="-4"/>
      <point x="493" y="-3" type="curve" smooth="yes"/>
    </contour>
  </outline>
</glyph>
<glyph name="M" format="2">
  <advance width="881"/>
  <unicode hex="004D"/>
  <anchor x="391" y="0" name="bottom"/>
  <anchor x="601" y="616" name="top"/>
  <outline>
    <contour>
      <point x="364" y="-16" type="line"/>
      <point x="821" y="586" type="line"/>
      <point x="800" y="616" type="line"/>
      <point x="412" y="107" type="line"/>
      <point x="417" y="117" type="line"/>
      <point x="326" y="616" type="line"/>
      <point x="164" y="616" type="line"/>
      <point x="157" y="591" type="line"/>
      <point x="204" y="587" type="line" smooth="yes"/>
      <point x="232" y="584"/>
      <point x="257" y="565"/>
      <point x="262" y="540" type="curve" smooth="yes"/>
    </contour>
    <contour>
      <point x="-18" y="0" type="line"/>
      <point x="216" y="0" type="line"/>
      <point x="223" y="25" type="line"/>
      <point x="189" y="33"/>
      <point x="142" y="40"/>
      <point x="135" y="52" type="curve" smooth="yes"/>
      <point x="129" y="63"/>
      <point x="128" y="79"/>
      <point x="136" y="105" type="curve" smooth="yes"/>
      <point x="278" y="561" type="line"/>
      <point x="245" y="591" type="line"/>
      <point x="96" y="105" type="line" smooth="yes"/>
      <point x="88" y="78"/>
      <point x="78" y="60"/>
      <point x="67" y="51" type="curve" smooth="yes"/>
      <point x="52" y="39"/>
      <point x="14" y="33"/>
      <point x="-11" y="25" type="curve"/>
    </contour>
    <contour>
      <point x="558" y="0" type="line"/>
      <point x="810" y="0" type="line"/>
      <point x="817" y="25" type="line"/>
      <point x="779" y="33"/>
      <point x="746" y="41"/>
      <point x="740" y="51" type="curve" smooth="yes"/>
      <point x="729" y="65"/>
      <point x="735" y="82"/>
      <point x="741" y="104" type="curve" smooth="yes"/>
      <point x="769" y="216"/>
      <point x="816" y="401"/>
      <point x="849" y="529" type="curve" smooth="yes"/>
      <point x="854" y="544"/>
      <point x="860" y="556"/>
      <point x="873" y="566" type="curve" smooth="yes"/>
      <point x="887" y="578"/>
      <point x="917" y="586"/>
      <point x="949" y="591" type="curve"/>
      <point x="956" y="616" type="line"/>
      <point x="800" y="616" type="line"/>
      <point x="671" y="104" type="line" smooth="yes"/>
      <point x="664" y="80"/>
      <point x="660" y="63"/>
      <point x="644" y="50" type="curve" smooth="yes"/>
      <point x="623" y="34"/>
      <point x="584" y="27"/>
      <point x="565" y="25" type="curve"/>
    </contour>
  </outline>
</glyph>
<glyph name="N" format="2">
  <advance width="763"/>
  <unicode hex="004E"/>
  <anchor x="315" y="0" name="bottom"/>
  <anchor x="525" y="616" name="top"/>
  <outline>
    <contour>
      <point x="582" y="-8" type="line"/>
      <point x="608" y="-8" type="line"/>
      <point x="652" y="160"/>
      <point x="728" y="443"/>
      <point x="747" y="512" type="curve"/>
      <point x="707" y="512" type="line"/>
      <point x="596" y="97" type="line"/>
      <point x="609" y="106" type="line"/>
      <point x="266" y="616" type="line"/>
      <point x="146" y="616" type="line"/>
      <point x="139" y="591" type="line"/>
      <point x="161" y="587"/>
      <point x="184" y="570"/>
      <point x="195" y="557" type="curve" smooth="yes"/>
      <point x="209" y="541"/>
      <point x="229" y="514"/>
      <point x="229" y="514" type="curve"/>
    </contour>
    <contour>
      <point x="-20" y="0" type="line"/>
      <point x="214" y="0" type="line"/>
      <point x="221" y="25" type="line"/>
      <point x="185" y="28"/>
      <point x="147" y="35"/>
      <point x="138" y="52" type="curve" smooth="yes"/>
      <point x="129" y="68"/>
      <point x="132" y="78"/>
      <point x="139" y="104" type="curve"/>
      <point x="99" y="104" type="line"/>
      <point x="92" y="77"/>
      <point x="87" y="70"/>
      <point x="70" y="56" type="curve" smooth="yes"/>
      <point x="48" y="39"/>
      <point x="10" y="33"/>
      <point x="-13" y="25" type="curve"/>
    </contour>
    <contour>
      <point x="99" y="104" type="line"/>
      <point x="139" y="104" type="line"/>
      <point x="261" y="561" type="line"/>
      <point x="228" y="591" type="line"/>
    </contour>
    <contour>
      <point x="707" y="512" type="curve"/>
      <point x="747" y="512" type="line"/>
      <point x="755" y="542"/>
      <point x="764" y="556"/>
      <point x="779" y="565" type="curve" smooth="yes"/>
      <point x="793" y="575"/>
      <point x="814" y="581"/>
      <point x="840" y="588" type="curve"/>
      <point x="847" y="616" type="line"/>
      <point x="631" y="616" type="line"/>
      <point x="624" y="591" type="line"/>
      <point x="669" y="584"/>
      <point x="687" y="579"/>
      <point x="699" y="565" type="curve" smooth="yes"/>
      <point x="707" y="554"/>
      <point x="715" y="541"/>
    </contour>
  </outline>
</glyph>
<glyph name="O" format="2">
  <advance width="732"/>
  <unicode hex="004F"/>
  <anchor x="236" y="0" name="bottom"/>
  <anchor x="301" y="308" name="center"/>
  <anchor x="496" y="10" name="ogonek"/>
  <anchor x="404" y="617" name="top"/>
  <anchor x="55" y="616" name="topleft"/>
  <anchor x="757" y="616" name="topright"/>
  <outline>
    <contour>
      <point x="172" y="-8"/>
      <point x="359" y="-8" type="curve" smooth="yes"/>
      <point x="518" y="-8"/>
      <point x="664" y="116"/>
      <point x="689" y="272" type="curve" smooth="yes"/>
      <point x="727" y="470"/>
      <point x="608" y="628"/>
      <point x="421" y="628" type="curve" smooth="yes"/>
      <point x="262" y="628"/>
      <point x="116" y="504"/>
      <point x="91" y="348" type="curve" smooth="yes"/>
      <point x="53" y="150"/>
    </contour>
    <contour>
      <point x="392" y="32" type="curve" smooth="yes"/>
      <point x="249" y="32"/>
      <point x="150" y="183"/>
      <point x="169" y="372" type="curve" smooth="yes"/>
      <point x="178" y="492"/>
      <point x="281" y="588"/>
      <point x="401" y="588" type="curve" smooth="yes"/>
      <point x="536" y="588"/>
      <point x="629" y="437"/>
      <point x="610" y="248" type="curve" smooth="yes"/>
      <point x="601" y="128"/>
      <point x="504" y="32"/>
    </contour>
  </outline>
</glyph>
<glyph name="Q" format="2">
  <advance width="732"/>
  <unicode hex="0051"/>
  <anchor x="246" y="0" name="bottom"/>
  <anchor x="311" y="308" name="center"/>
  <anchor x="506" y="10" name="ogonek"/>
  <anchor x="414" y="617" name="top"/>
  <anchor x="65" y="616" name="topleft"/>
  <anchor x="767" y="616" name="topright"/>
  <outline>
    <contour>
      <point x="91" y="348" type="curve" smooth="yes"/>
      <point x="51" y="139"/>
      <point x="166" y="-8"/>
      <point x="369" y="-8" type="curve" smooth="yes"/>
      <point x="542" y="-8"/>
      <point x="683" y="108"/>
      <point x="709" y="272" type="curve" smooth="yes"/>
      <point x="749" y="481"/>
      <point x="634" y="628"/>
      <point x="431" y="628" type="curve" smooth="yes"/>
      <point x="258" y="628"/>
      <point x="117" y="512"/>
    </contour>
    <contour>
      <point x="402" y="32" type="curve" smooth="yes"/>
      <point x="246" y="32"/>
      <point x="149" y="173"/>
      <point x="169" y="372" type="curve" smooth="yes"/>
      <point x="179" y="499"/>
      <point x="279" y="588"/>
      <point x="411" y="588" type="curve" smooth="yes"/>
      <point x="559" y="588"/>
      <point x="650" y="447"/>
      <point x="630" y="248" type="curve" smooth="yes"/>
      <point x="620" y="121"/>
      <point x="526" y="32"/>
    </contour>
    <contour>
      <point x="308" y="102" type="curve"/>
      <point x="250" y="49" type="line"/>
      <point x="411" y="49"/>
      <point x="383" y="-230"/>
      <point x="570" y="-230" type="curve" smooth="yes"/>
      <point x="666" y="-230"/>
      <point x="790" y="-176"/>
      <point x="891" y="-91" type="curve"/>
      <point x="891" y="-71" type="line"/>
      <point x="797" y="-136"/>
      <point x="685" y="-177"/>
      <point x="618" y="-177" type="curve" smooth="yes"/>
      <point x="456" y="-177"/>
      <point x="495" y="102"/>
    </contour>
  </outline>
</glyph>
<glyph name="S" format="2">
  <advance width="471"/>
  <unicode hex="0053"/>
  <anchor x="185" y="0" name="bottom"/>
  <anchor x="395" y="616" name="top"/>
  <outline>
    <contour>
      <point x="201" y="-9" type="curve" smooth="yes"/>
      <point x="301" y="-9"/>
      <point x="382" y="58"/>
      <point x="397" y="152" type="curve" smooth="yes"/>
      <point x="424" y="325"/>
      <point x="190" y="372"/>
      <point x="208" y="518" type="curve" smooth="yes"/>
      <point x="213" y="560"/>
      <point x="250" y="589"/>
      <point x="313" y="589" type="curve" smooth="yes"/>
      <point x="408" y="589"/>
      <point x="456" y="533"/>
      <point x="428" y="453" type="curve"/>
      <point x="461" y="453" type="line"/>
      <point x="477" y="521"/>
      <point x="491" y="572"/>
      <point x="494" y="575" type="curve"/>
      <point x="458" y="604"/>
      <point x="389" y="624"/>
      <point x="326" y="624" type="curve" smooth="yes"/>
      <point x="227" y="624"/>
      <point x="159" y="565"/>
      <point x="146" y="481" type="curve" smooth="yes"/>
      <point x="119" y="298"/>
      <point x="350" y="259"/>
      <point x="335" y="115" type="curve" smooth="yes"/>
      <point x="329" y="60"/>
      <point x="276" y="22"/>
      <point x="207" y="23" type="curve" smooth="yes"/>
      <point x="113" y="25"/>
      <point x="64" y="97"/>
      <point x="90" y="197" type="curve"/>
      <point x="54" y="197" type="line"/>
      <point x="48" y="149"/>
      <point x="34" y="89"/>
      <point x="20" y="53" type="curve"/>
      <point x="56" y="17"/>
      <point x="131" y="-9"/>
    </contour>
  </outline>
</glyph>
<glyph name="T" format="2">
  <advance width="576"/>
  <unicode hex="0054"/>
  <anchor x="210" y="0" name="bottom"/>
  <anchor x="315" y="308" name="center"/>
  <anchor x="420" y="616" name="top"/>
  <outline>
    <contour>
      <point x="78" y="0" type="line"/>
      <point x="392" y="0" type="line"/>
      <point x="398" y="25" type="line"/>
      <point x="327" y="39"/>
      <point x="275" y="43"/>
      <point x="287" y="97" type="curve" smooth="yes"/>
      <point x="324" y="259"/>
      <point x="370" y="428"/>
      <point x="418" y="590" type="curve"/>
      <point x="397" y="565" type="line"/>
      <point x="461" y="565"/>
      <point x="510" y="565"/>
      <point x="539" y="565" type="curve" smooth="yes"/>
      <point x="575" y="565"/>
      <point x="621" y="559"/>
      <point x="596" y="447" type="curve"/>
      <point x="633" y="451" type="line"/>
      <point x="649" y="515"/>
      <point x="661" y="579"/>
      <point x="666" y="643" type="curve"/>
      <point x="657" y="643" type="line"/>
      <point x="596" y="616" type="line"/>
      <point x="438" y="613"/>
      <point x="315" y="613"/>
      <point x="174" y="616" type="curve"/>
      <point x="136" y="653" type="line"/>
      <point x="130" y="648" type="line"/>
      <point x="99" y="581"/>
      <point x="76" y="515"/>
      <point x="56" y="448" type="curve"/>
      <point x="92" y="446" type="line"/>
      <point x="128" y="561"/>
      <point x="163" y="565"/>
      <point x="227" y="565" type="curve" smooth="yes"/>
      <point x="367" y="565" type="line"/>
      <point x="344" y="590" type="line"/>
      <point x="312" y="462"/>
      <point x="227" y="143"/>
      <point x="212" y="97" type="curve" smooth="yes"/>
      <point x="198" y="51"/>
      <point x="163" y="38"/>
      <point x="84" y="25" type="curve"/>
    </contour>
  </outline>
</glyph>
<glyph name="V" format="2">
  <advance width="672"/>
  <unicode hex="0056"/>
  <anchor x="223" y="0" name="bottom"/>
  <anchor x="433" y="616" name="top"/>
  <outline>
    <contour>
      <point x="238" y="-24" type="line"/>
      <point x="251" y="-24" type="line"/>
      <point x="367" y="153"/>
      <point x="576" y="444"/>
      <point x="619" y="505" type="curve" smooth="yes"/>
      <point x="662" y="566"/>
      <point x="701" y="579"/>
      <point x="766" y="588" type="curve"/>
      <point x="773" y="616" type="line"/>
      <point x="523" y="616" type="line"/>
      <point x="517" y="593" type="line"/>
      <point x="565" y="586"/>
      <point x="597" y="573"/>
      <point x="589" y="543" type="curve" smooth="yes"/>
      <point x="583" y="521"/>
      <point x="562" y="488"/>
      <point x="537" y="452" type="curve" smooth="yes"/>
      <point x="274" y="70" type="line"/>
      <point x="299" y="93" type="line"/>
      <point x="276" y="227"/>
      <point x="246" y="480"/>
      <point x="243" y="496" type="curve" smooth="yes"/>
      <point x="240" y="512"/>
      <point x="239" y="528"/>
      <point x="243" y="543" type="curve" smooth="yes"/>
      <point x="247" y="558"/>
      <point x="263" y="582"/>
      <point x="352" y="591" type="curve"/>
      <point x="359" y="616" type="line"/>
      <point x="71" y="616" type="line"/>
      <point x="64" y="588" type="line"/>
      <point x="109" y="580"/>
      <point x="153" y="571"/>
      <point x="165" y="489" type="curve" smooth="yes"/>
    </contour>
  </outline>
</glyph>
<glyph name="a" format="2">
  <advance width="393"/>
  <unicode hex="0061"/>
  <anchor x="143" y="0" name="bottom"/>
  <anchor x="325" y="10" name="ogonek"/>
  <anchor x="284" y="401" name="top"/>
  <outline>
    <contour>
      <point x="65" y="-10" type="curve" smooth="yes"/>
      <point x="130" y="-10"/>
      <point x="196" y="53"/>
      <point x="274" y="208" type="curve"/>
      <point x="266" y="249" type="line"/>
      <point x="208" y="132"/>
      <point x="147" y="46"/>
      <point x="106" y="46" type="curve" smooth="yes"/>
      <point x="78" y="46"/>
      <point x="75" y="97"/>
      <point x="90" y="156" type="curve" smooth="yes"/>
      <point x="124" y="284"/>
      <point x="191" y="366"/>
      <point x="255" y="366" type="curve" smooth="yes"/>
      <point x="276" y="366"/>
      <point x="285" y="355"/>
      <point x="295" y="333" type="curve"/>
      <point x="322" y="388" type="line"/>
      <point x="306" y="396"/>
      <point x="293" y="402"/>
      <point x="278" y="402" type="curve" smooth="yes"/>
      <point x="169" y="402"/>
      <point x="60" y="286"/>
      <point x="14" y="121" type="curve" smooth="yes"/>
      <point x="-7" y="44"/>
      <point x="14" y="-10"/>
    </contour>
    <contour>
      <point x="247" y="-6" type="curve" smooth="yes"/>
      <point x="280" y="-6"/>
      <point x="332" y="39"/>
      <point x="382" y="106" type="curve"/>
      <point x="363" y="124" type="line"/>
      <point x="329" y="87"/>
      <point x="301" y="60"/>
      <point x="291" y="60" type="curve" smooth="yes"/>
      <point x="280" y="60"/>
      <point x="279" y="99"/>
      <point x="292" y="156" type="curve" smooth="yes"/>
      <point x="306" y="220"/>
      <point x="343" y="327"/>
      <point x="380" y="415" type="curve"/>
      <point x="357" y="408"/>
      <point x="331" y="404"/>
      <point x="311" y="405" type="curve"/>
      <point x="303" y="376"/>
      <point x="275" y="292"/>
      <point x="251" y="201" type="curve" smooth="yes"/>
      <point x="218" y="77"/>
      <point x="206" y="-6"/>
    </contour>
  </outline>
</glyph>
<glyph name="b" format="2">
  <advance width="370"/>
  <unicode hex="0062"/>
  <anchor x="160" y="0" name="bottom"/>
  <anchor x="171" y="510" name="center"/>
  <anchor x="254" y="402" name="top"/>
  <outline>
    <contour>
      <point x="120" y="-8" type="curve" smooth="yes"/>
      <point x="157" y="-8"/>
      <point x="116" y="26"/>
      <point x="107" y="27" type="curve" smooth="yes"/>
      <point x="84" y="29"/>
      <point x="74" y="53"/>
      <point x="82" y="85" type="curve"/>
      <point x="102" y="151"/>
      <point x="130" y="242"/>
      <point x="150" y="308" type="curve" smooth="yes"/>
      <point x="173" y="385"/>
      <point x="196" y="461"/>
      <point x="219" y="538" type="curve"/>
      <point x="233" y="589"/>
      <point x="246" y="624"/>
      <point x="253" y="648" type="curve"/>
      <point x="211" y="641"/>
      <point x="151" y="636"/>
      <point x="109" y="636" type="curve"/>
      <point x="102" y="611" type="line"/>
      <point x="125" y="609"/>
      <point x="147" y="599"/>
      <point x="155" y="587" type="curve" smooth="yes"/>
      <point x="161" y="579"/>
      <point x="159" y="552"/>
      <point x="150" y="521" type="curve"/>
      <point x="130" y="455"/>
      <point x="110" y="389"/>
      <point x="90" y="323" type="curve" smooth="yes"/>
      <point x="66" y="245"/>
      <point x="37" y="160"/>
      <point x="13" y="82" type="curve"/>
      <point x="-1" y="29"/>
      <point x="43" y="-8"/>
    </contour>
    <contour>
      <point x="124" y="355" type="curve"/>
      <point x="124" y="323" type="line"/>
      <point x="163" y="352"/>
      <point x="204" y="373"/>
      <point x="222" y="373" type="curve" smooth="yes"/>
      <point x="274" y="373"/>
      <point x="291" y="307"/>
      <point x="265" y="214" type="curve" smooth="yes"/>
      <point x="236" y="104"/>
      <point x="171" y="27"/>
      <point x="107" y="27" type="curve" smooth="yes"/>
      <point x="90" y="27"/>
      <point x="89" y="-8"/>
      <point x="120" y="-8" type="curve" smooth="yes"/>
      <point x="214" y="-8"/>
      <point x="307" y="93"/>
      <point x="344" y="236" type="curve" smooth="yes"/>
      <point x="371" y="339"/>
      <point x="336" y="412"/>
      <point x="260" y="412" type="curve" smooth="yes"/>
      <point x="231" y="412"/>
      <point x="175" y="388"/>
    </contour>
  </outline>
</glyph>
<glyph name="c" format="2">
  <advance width="325"/>
  <unicode hex="0063"/>
  <anchor x="123" y="0" name="bottom"/>
  <anchor x="217" y="402" name="top"/>
  <outline>
    <contour>
      <point x="104" y="-8" type="curve" smooth="yes"/>
      <point x="161" y="-8"/>
      <point x="229" y="35"/>
      <point x="267" y="95" type="curve"/>
      <point x="250" y="109" type="line"/>
      <point x="212" y="70"/>
      <point x="167" y="42"/>
      <point x="141" y="42" type="curve" smooth="yes"/>
      <point x="90" y="42"/>
      <point x="75" y="117"/>
      <point x="104" y="224" type="curve" smooth="yes"/>
      <point x="131" y="319"/>
      <point x="178" y="387"/>
      <point x="218" y="387" type="curve" smooth="yes"/>
      <point x="249" y="387"/>
      <point x="258" y="348"/>
      <point x="241" y="294" type="curve"/>
      <point x="240" y="283"/>
      <point x="245" y="275"/>
      <point x="253" y="275" type="curve" smooth="yes"/>
      <point x="284" y="275"/>
      <point x="311" y="292"/>
      <point x="318" y="316" type="curve" smooth="yes"/>
      <point x="332" y="373"/>
      <point x="296" y="414"/>
      <point x="230" y="414" type="curve" smooth="yes"/>
      <point x="150" y="414"/>
      <point x="69" y="326"/>
      <point x="35" y="201" type="curve" smooth="yes"/>
      <point x="2" y="79"/>
      <point x="30" y="-8"/>
    </contour>
  </outline>
</glyph>
<glyph name="d" format="2">
  <advance width="392"/>
  <unicode hex="0064"/>
  <anchor x="143" y="0" name="bottom"/>
  <anchor x="388" y="510" name="center"/>
  <anchor x="325" y="10" name="ogonek"/>
  <anchor x="284" y="401" name="top"/>
  <anchor x="506" y="637" name="topright"/>
  <outline>
    <contour>
      <point x="65" y="-10" type="curve" smooth="yes"/>
      <point x="130" y="-10"/>
      <point x="198" y="53"/>
      <point x="276" y="208" type="curve"/>
      <point x="266" y="249" type="line"/>
      <point x="208" y="132"/>
      <point x="142" y="46"/>
      <point x="101" y="46" type="curve" smooth="yes"/>
      <point x="73" y="46"/>
      <point x="68" y="96"/>
      <point x="83" y="155" type="curve" smooth="yes"/>
      <point x="117" y="283"/>
      <point x="189" y="363"/>
      <point x="253" y="363" type="curve" smooth="yes"/>
      <point x="274" y="363"/>
      <point x="285" y="355"/>
      <point x="295" y="333" type="curve"/>
      <point x="322" y="388" type="line"/>
      <point x="306" y="396"/>
      <point x="293" y="402"/>
      <point x="278" y="402" type="curve" smooth="yes"/>
      <point x="169" y="402"/>
      <point x="60" y="286"/>
      <point x="14" y="121" type="curve" smooth="yes"/>
      <point x="-7" y="44"/>
      <point x="14" y="-10"/>
    </contour>
    <contour>
      <point x="238" y="-6" type="curve" smooth="yes"/>
      <point x="271" y="-6"/>
      <point x="332" y="39"/>
      <point x="382" y="106" type="curve"/>
      <point x="363" y="124" type="line"/>
      <point x="329" y="87"/>
      <point x="300" y="56"/>
      <point x="290" y="56" type="curve" smooth="yes"/>
      <point x="279" y="56"/>
      <point x="278" y="95"/>
      <point x="291" y="152" type="curve" smooth="yes"/>
      <point x="295" y="170"/>
      <point x="299" y="195"/>
      <point x="306" y="217" type="curve" smooth="yes"/>
      <point x="332" y="308" type="line"/>
      <point x="401" y="538" type="line" smooth="yes"/>
      <point x="416" y="589"/>
      <point x="429" y="624"/>
      <point x="436" y="648" type="curve"/>
      <point x="388" y="640"/>
      <point x="335" y="636"/>
      <point x="287" y="636" type="curve"/>
      <point x="280" y="611" type="line"/>
      <point x="318" y="608"/>
      <point x="333" y="606"/>
      <point x="340" y="595" type="curve" smooth="yes"/>
      <point x="345" y="589"/>
      <point x="343" y="574"/>
      <point x="329" y="521" type="curve" smooth="yes"/>
      <point x="311" y="455"/>
      <point x="302" y="414"/>
      <point x="281" y="348" type="curve" smooth="yes"/>
      <point x="260" y="281" type="line"/>
      <point x="238" y="201" type="line" smooth="yes"/>
      <point x="204" y="78"/>
      <point x="197" y="-6"/>
    </contour>
  </outline>
</glyph>
<glyph name="e" format="2">
  <advance width="320"/>
  <unicode hex="0065"/>
  <anchor x="124" y="0" name="bottom"/>
  <anchor x="272" y="10" name="ogonek"/>
  <anchor x="218" y="402" name="top"/>
  <outline>
    <contour>
      <point x="104" y="-8" type="curve" smooth="yes"/>
      <point x="161" y="-8"/>
      <point x="229" y="35"/>
      <point x="267" y="95" type="curve"/>
      <point x="250" y="109" type="line"/>
      <point x="210" y="68"/>
      <point x="162" y="39"/>
      <point x="135" y="39" type="curve" smooth="yes"/>
      <point x="85" y="39"/>
      <point x="70" y="115"/>
      <point x="99" y="222" type="curve" smooth="yes"/>
      <point x="123" y="314"/>
      <point x="171" y="379"/>
      <point x="215" y="379" type="curve" smooth="yes"/>
      <point x="241" y="379"/>
      <point x="251" y="350"/>
      <point x="239" y="308" type="curve" smooth="yes"/>
      <point x="221" y="244"/>
      <point x="155" y="193"/>
      <point x="80" y="185" type="curve"/>
      <point x="77" y="157" type="line"/>
      <point x="186" y="168"/>
      <point x="280" y="236"/>
      <point x="303" y="322" type="curve" smooth="yes"/>
      <point x="315" y="375"/>
      <point x="290" y="413"/>
      <point x="243" y="413" type="curve" smooth="yes"/>
      <point x="154" y="413"/>
      <point x="68" y="325"/>
      <point x="35" y="201" type="curve" smooth="yes"/>
      <point x="2" y="79"/>
      <point x="31" y="-8"/>
    </contour>
  </outline>
</glyph>
<glyph name="g" format="2">
  <advance width="383"/>
  <unicode hex="0067"/>
  <anchor x="72" y="-230" name="bottom"/>
  <anchor x="265" y="402" name="top"/>
  <outline>
    <contour>
      <point x="79" y="-193" type="curve" smooth="yes"/>
      <point x="198" y="-193"/>
      <point x="295" y="-145"/>
      <point x="302" y="-81" type="curve" smooth="yes"/>
      <point x="307" y="-32"/>
      <point x="283" y="10"/>
      <point x="169" y="50" type="curve" smooth="yes"/>
      <point x="122" y="67"/>
      <point x="111" y="88"/>
      <point x="106" y="103" type="curve" smooth="yes"/>
      <point x="98" y="126"/>
      <point x="134" y="140"/>
      <point x="169" y="142" type="curve"/>
      <point x="169" y="146" type="line"/>
      <point x="124" y="154" type="line"/>
      <point x="84" y="148"/>
      <point x="56" y="123"/>
      <point x="49" y="101" type="curve" smooth="yes"/>
      <point x="37" y="64"/>
      <point x="83" y="11"/>
      <point x="161" y="-20" type="curve" smooth="yes"/>
      <point x="216" y="-42"/>
      <point x="247" y="-64"/>
      <point x="246" y="-86" type="curve" smooth="yes"/>
      <point x="244" y="-128"/>
      <point x="185" y="-157"/>
      <point x="120" y="-157" type="curve" smooth="yes"/>
      <point x="4" y="-157"/>
      <point x="-54" y="-97"/>
      <point x="0" y="-10" type="curve" smooth="yes"/>
      <point x="12" y="9"/>
      <point x="45" y="34"/>
      <point x="111" y="34" type="curve"/>
      <point x="84" y="60" type="line"/>
      <point x="8" y="60"/>
      <point x="-62" y="-2"/>
      <point x="-73" y="-55" type="curve" smooth="yes"/>
      <point x="-93" y="-136"/>
      <point x="-36" y="-193"/>
    </contour>
    <contour>
      <point x="144" y="127" type="curve" smooth="yes"/>
      <point x="221" y="127"/>
      <point x="282" y="184"/>
      <point x="304" y="264" type="curve" smooth="yes"/>
      <point x="329" y="351"/>
      <point x="300" y="414"/>
      <point x="221" y="414" type="curve" smooth="yes"/>
      <point x="147" y="414"/>
      <point x="88" y="359"/>
      <point x="66" y="281" type="curve" smooth="yes"/>
      <point x="42" y="192"/>
      <point x="70" y="127"/>
    </contour>
    <contour>
      <point x="155" y="154" type="curve" smooth="yes"/>
      <point x="123" y="154"/>
      <point x="109" y="208"/>
      <point x="136" y="288" type="curve" smooth="yes"/>
      <point x="154" y="346"/>
      <point x="194" y="386"/>
      <point x="220" y="386" type="curve" smooth="yes"/>
      <point x="251" y="386"/>
      <point x="254" y="332"/>
      <point x="232" y="253" type="curve" smooth="yes"/>
      <point x="216" y="194"/>
      <point x="187" y="154"/>
    </contour>
    <contour>
      <point x="246" y="178" type="line"/>
      <point x="281" y="284"/>
      <point x="330" y="358"/>
      <point x="362" y="358" type="curve" smooth="yes"/>
      <point x="365" y="358"/>
      <point x="369" y="357"/>
      <point x="373" y="356" type="curve" smooth="yes"/>
      <point x="377" y="355"/>
      <point x="381" y="354"/>
      <point x="383" y="354" type="curve" smooth="yes"/>
      <point x="394" y="354"/>
      <point x="409" y="368"/>
      <point x="416" y="386" type="curve" smooth="yes"/>
      <point x="422" y="403"/>
      <point x="411" y="414"/>
      <point x="393" y="414" type="curve" smooth="yes"/>
      <point x="349" y="414"/>
      <point x="282" y="332"/>
      <point x="232" y="220" type="curve"/>
    </contour>
  </outline>
</glyph>
<glyph name="j" format="2">
  <advance width="217"/>
  <unicode hex="006A"/>
  <outline>
    <contour>
      <point x="-130" y="-234" type="curve" smooth="yes"/>
      <point x="-65" y="-234"/>
      <point x="82" y="-78"/>
      <point x="123" y="74" type="curve" smooth="yes"/>
      <point x="195" y="343" type="line" smooth="yes"/>
      <point x="206" y="385"/>
      <point x="215" y="414"/>
      <point x="183" y="414" type="curve" smooth="yes"/>
      <point x="179" y="414" type="line"/>
      <point x="176" y="414" type="line"/>
      <point x="175" y="414" type="line" smooth="yes"/>
      <point x="137" y="409"/>
      <point x="75" y="372"/>
      <point x="20" y="320" type="curve"/>
      <point x="41" y="299" type="line"/>
      <point x="72" y="330"/>
      <point x="104" y="353"/>
      <point x="118" y="353" type="curve" smooth="yes"/>
      <point x="120" y="353"/>
      <point x="123" y="353"/>
      <point x="124" y="348" type="curve"/>
      <point x="123" y="334"/>
      <point x="116" y="302"/>
      <point x="105" y="260" type="curve" smooth="yes"/>
      <point x="53" y="55" type="line" smooth="yes"/>
      <point x="19" y="-79"/>
      <point x="-39" y="-160"/>
      <point x="-58" y="-160" type="curve" smooth="yes"/>
      <point x="-66" y="-160"/>
      <point x="-70" y="-151"/>
      <point x="-74" y="-144" type="curve" smooth="yes"/>
      <point x="-78" y="-138"/>
      <point x="-82" y="-132"/>
      <point x="-93" y="-132" type="curve" smooth="yes"/>
      <point x="-126" y="-132"/>
      <point x="-159" y="-163"/>
      <point x="-166" y="-196" type="curve" smooth="yes"/>
      <point x="-173" y="-220"/>
      <point x="-157" y="-234"/>
    </contour>
    <contour>
      <point x="191" y="522" type="curve" smooth="yes"/>
      <point x="217" y="522"/>
      <point x="241" y="541"/>
      <point x="248" y="567" type="curve" smooth="yes"/>
      <point x="255" y="595"/>
      <point x="242" y="615"/>
      <point x="216" y="615" type="curve" smooth="yes"/>
      <point x="190" y="615"/>
      <point x="166" y="598"/>
      <point x="159" y="573" type="curve" smooth="yes"/>
      <point x="151" y="543"/>
      <point x="164" y="522"/>
    </contour>
  </outline>
</glyph>
<glyph name="m" format="2">
  <advance width="638"/>
  <unicode hex="006D"/>
  <anchor x="279" y="-1" name="bottom"/>
  <anchor x="382" y="402" name="top"/>
  <outline>
    <contour>
      <point x="459" y="-8" type="curve" smooth="yes"/>
      <point x="498" y="-8"/>
      <point x="565" y="36"/>
      <point x="607" y="98" type="curve"/>
      <point x="591" y="114" type="line"/>
      <point x="558" y="77"/>
      <point x="526" y="56"/>
      <point x="513" y="56" type="curve" smooth="yes"/>
      <point x="502" y="56"/>
      <point x="508" y="91"/>
      <point x="528" y="145" type="curve" smooth="yes"/>
      <point x="574" y="267" type="line" smooth="yes"/>
      <point x="607" y="356"/>
      <point x="600" y="416"/>
      <point x="552" y="416" type="curve" smooth="yes"/>
      <point x="456" y="416"/>
      <point x="377" y="318"/>
      <point x="313" y="144" type="curve"/>
      <point x="288" y="25" type="line"/>
      <point x="355" y="226"/>
      <point x="445" y="361"/>
      <point x="518" y="365" type="curve" smooth="yes"/>
      <point x="541" y="366"/>
      <point x="531" y="323"/>
      <point x="506" y="259" type="curve" smooth="yes"/>
      <point x="442" y="97" type="line" smooth="yes"/>
      <point x="417" y="33"/>
      <point x="420" y="-8"/>
    </contour>
    <contour>
      <point x="23" y="-9" type="curve"/>
      <point x="52" y="-11"/>
      <point x="79" y="-8"/>
      <point x="100" y="1" type="curve"/>
      <point x="120" y="59"/>
      <point x="151" y="177"/>
      <point x="188" y="332" type="curve" smooth="yes"/>
      <point x="199" y="384"/>
      <point x="187" y="413"/>
      <point x="155" y="413" type="curve" smooth="yes"/>
      <point x="122" y="413"/>
      <point x="64" y="366"/>
      <point x="18" y="297" type="curve"/>
      <point x="37" y="280" type="line"/>
      <point x="70" y="315"/>
      <point x="106" y="357"/>
      <point x="116" y="357" type="curve" smooth="yes"/>
      <point x="130" y="357"/>
      <point x="130" y="322"/>
      <point x="115" y="267" type="curve" smooth="yes"/>
      <point x="96" y="194"/>
      <point x="59" y="89"/>
    </contour>
    <contour>
      <point x="227" y="-9" type="curve"/>
      <point x="246" y="-12"/>
      <point x="272" y="-7"/>
      <point x="291" y="1" type="curve"/>
      <point x="291" y="1"/>
      <point x="315" y="87"/>
      <point x="357" y="243" type="curve" smooth="yes"/>
      <point x="357" y="243"/>
      <point x="361" y="259"/>
      <point x="369" y="288" type="curve" smooth="yes"/>
      <point x="391" y="369"/>
      <point x="382" y="414"/>
      <point x="350" y="414" type="curve" smooth="yes"/>
      <point x="263" y="414"/>
      <point x="181" y="321"/>
      <point x="124" y="153" type="curve"/>
      <point x="109" y="54" type="line"/>
      <point x="174" y="240"/>
      <point x="240" y="354"/>
      <point x="301" y="354" type="curve" smooth="yes"/>
      <point x="322" y="354"/>
      <point x="323" y="311"/>
      <point x="300" y="234" type="curve" smooth="yes"/>
      <point x="267" y="119"/>
      <point x="233" y="26"/>
    </contour>
  </outline>
</glyph>
<glyph name="n" format="2">
  <advance width="437"/>
  <unicode hex="006E"/>
  <anchor x="157" y="0" name="bottom"/>
  <anchor x="265" y="402" name="top"/>
  <outline>
    <contour>
      <point x="20" y="-9" type="curve"/>
      <point x="49" y="-3"/>
      <point x="76" y="0"/>
      <point x="97" y="1" type="curve"/>
      <point x="117" y="59"/>
      <point x="148" y="177"/>
      <point x="185" y="332" type="curve" smooth="yes"/>
      <point x="196" y="384"/>
      <point x="184" y="413"/>
      <point x="152" y="413" type="curve" smooth="yes"/>
      <point x="119" y="413"/>
      <point x="61" y="366"/>
      <point x="14" y="297" type="curve"/>
      <point x="33" y="280" type="line"/>
      <point x="67" y="315"/>
      <point x="106" y="357"/>
      <point x="116" y="357" type="curve" smooth="yes"/>
      <point x="130" y="357"/>
      <point x="130" y="322"/>
      <point x="115" y="267" type="curve" smooth="yes"/>
      <point x="96" y="194"/>
      <point x="56" y="89"/>
    </contour>
    <contour>
      <point x="258" y="-8" type="curve" smooth="yes"/>
      <point x="297" y="-8"/>
      <point x="364" y="36"/>
      <point x="406" y="99" type="curve"/>
      <point x="390" y="114" type="line"/>
      <point x="357" y="77"/>
      <point x="325" y="56"/>
      <point x="312" y="56" type="curve" smooth="yes"/>
      <point x="301" y="56"/>
      <point x="307" y="91"/>
      <point x="327" y="145" type="curve" smooth="yes"/>
      <point x="373" y="267" type="line" smooth="yes"/>
      <point x="406" y="356"/>
      <point x="399" y="416"/>
      <point x="351" y="416" type="curve" smooth="yes"/>
      <point x="255" y="416"/>
      <point x="186" y="318"/>
      <point x="122" y="144" type="curve"/>
      <point x="97" y="25" type="line"/>
      <point x="164" y="226"/>
      <point x="244" y="361"/>
      <point x="317" y="365" type="curve" smooth="yes"/>
      <point x="340" y="366"/>
      <point x="330" y="323"/>
      <point x="305" y="259" type="curve" smooth="yes"/>
      <point x="241" y="97" type="line" smooth="yes"/>
      <point x="216" y="33"/>
      <point x="219" y="-8"/>
    </contour>
  </outline>
</glyph>
<glyph name="o" format="2">
  <advance width="388"/>
  <unicode hex="006F"/>
  <anchor x="145" y="0" name="bottom"/>
  <anchor x="199" y="201" name="center"/>
  <anchor x="306" y="10" name="ogonek"/>
  <anchor x="253" y="402" name="top"/>
  <anchor x="431" y="402" name="topright"/>
  <outline>
    <contour>
      <point x="124" y="-8" type="curve" smooth="yes"/>
      <point x="225" y="-8"/>
      <point x="309" y="76"/>
      <point x="341" y="195" type="curve" smooth="yes"/>
      <point x="376" y="324"/>
      <point x="347" y="415"/>
      <point x="255" y="415" type="curve" smooth="yes"/>
      <point x="154" y="415"/>
      <point x="70" y="331"/>
      <point x="38" y="212" type="curve" smooth="yes"/>
      <point x="3" y="83"/>
      <point x="32" y="-8"/>
    </contour>
    <contour>
      <point x="137" y="19" type="curve" smooth="yes"/>
      <point x="87" y="19"/>
      <point x="79" y="83"/>
      <point x="103" y="174" type="curve" smooth="yes"/>
      <point x="127" y="299"/>
      <point x="179" y="388"/>
      <point x="242" y="388" type="curve" smooth="yes"/>
      <point x="290" y="388"/>
      <point x="298" y="324"/>
      <point x="274" y="233" type="curve" smooth="yes"/>
      <point x="250" y="108"/>
      <point x="199" y="19"/>
    </contour>
  </outline>
</glyph>
<glyph name="q" format="2">
  <advance width="391"/>
  <unicode hex="0071"/>
  <anchor x="245" y="-193" name="bottom"/>
  <anchor x="261" y="402" name="top"/>
  <outline>
    <contour>
      <point x="65" y="-10" type="curve" smooth="yes"/>
      <point x="130" y="-10"/>
      <point x="209" y="53"/>
      <point x="287" y="208" type="curve"/>
      <point x="277" y="249" type="line"/>
      <point x="219" y="132"/>
      <point x="147" y="46"/>
      <point x="106" y="46" type="curve" smooth="yes"/>
      <point x="78" y="46"/>
      <point x="73" y="99"/>
      <point x="88" y="158" type="curve" smooth="yes"/>
      <point x="122" y="286"/>
      <point x="189" y="366"/>
      <point x="253" y="366" type="curve" smooth="yes"/>
      <point x="274" y="366"/>
      <point x="295" y="355"/>
      <point x="305" y="333" type="curve"/>
      <point x="332" y="388" type="line"/>
      <point x="316" y="396"/>
      <point x="293" y="402"/>
      <point x="278" y="402" type="curve" smooth="yes"/>
      <point x="169" y="402"/>
      <point x="60" y="286"/>
      <point x="14" y="121" type="curve" smooth="yes"/>
      <point x="-7" y="44"/>
      <point x="14" y="-10"/>
    </contour>
    <contour>
      <point x="26" y="-212" type="line"/>
      <point x="277" y="-212" type="line"/>
      <point x="284" y="-187" type="line"/>
      <point x="245" y="-183"/>
      <point x="219" y="-176"/>
      <point x="210" y="-167" type="curve" smooth="yes"/>
      <point x="201" y="-159"/>
      <point x="199" y="-143"/>
      <point x="206" y="-121" type="curve" smooth="yes"/>
      <point x="381" y="412" type="line"/>
      <point x="356" y="404"/>
      <point x="340" y="399"/>
      <point x="309" y="400" type="curve"/>
      <point x="139" y="-121" type="line" smooth="yes"/>
      <point x="132" y="-142"/>
      <point x="121" y="-160"/>
      <point x="105" y="-171" type="curve" smooth="yes"/>
      <point x="89" y="-178"/>
      <point x="63" y="-184"/>
      <point x="33" y="-187" type="curve"/>
    </contour>
  </outline>
</glyph>
<glyph name="r" format="2">
  <advance width="323"/>
  <unicode hex="0072"/>
  <anchor x="124" y="0" name="bottom"/>
  <anchor x="218" y="402" name="top"/>
  <outline>
    <contour>
      <point x="19" y="-10" type="curve"/>
      <point x="48" y="-11"/>
      <point x="76" y="-7"/>
      <point x="96" y="0" type="curve"/>
      <point x="115" y="73"/>
      <point x="135" y="128"/>
      <point x="148" y="176" type="curve" smooth="yes"/>
      <point x="168" y="250"/>
      <point x="181" y="306"/>
      <point x="185" y="332" type="curve" smooth="yes"/>
      <point x="194" y="384"/>
      <point x="183" y="413"/>
      <point x="156" y="413" type="curve" smooth="yes"/>
      <point x="125" y="413"/>
      <point x="73" y="372"/>
      <point x="14" y="297" type="curve"/>
      <point x="33" y="280" type="line"/>
      <point x="69" y="322"/>
      <point x="104" y="357"/>
      <point x="117" y="357" type="curve" smooth="yes"/>
      <point x="131" y="357"/>
      <point x="130" y="324"/>
      <point x="115" y="266" type="curve" smooth="yes"/>
      <point x="89" y="173"/>
      <point x="49" y="68"/>
    </contour>
    <contour>
      <point x="105" y="33" type="line"/>
      <point x="154" y="223"/>
      <point x="201" y="328"/>
      <point x="255" y="328" type="curve" smooth="yes"/>
      <point x="261" y="328"/>
      <point x="265" y="325"/>
      <point x="271" y="322" type="curve" smooth="yes"/>
      <point x="276" y="320"/>
      <point x="281" y="318"/>
      <point x="289" y="318" type="curve" smooth="yes"/>
      <point x="312" y="318"/>
      <point x="330" y="339"/>
      <point x="340" y="376" type="curve" smooth="yes"/>
      <point x="346" y="400"/>
      <point x="333" y="413"/>
      <point x="304" y="413" type="curve" smooth="yes"/>
      <point x="233" y="413"/>
      <point x="165" y="300"/>
      <point x="96" y="98" type="curve"/>
    </contour>
  </outline>
</glyph>
<glyph name="s" format="2">
  <advance width="289"/>
  <unicode hex="0073"/>
  <anchor x="83" y="0" name="bottom"/>
  <anchor x="191" y="402" name="top"/>
  <outline>
    <contour>
      <point x="150" y="65" type="curve" smooth="yes"/>
      <point x="141" y="33"/>
      <point x="124" y="13"/>
      <point x="95" y="13" type="curve" smooth="yes"/>
      <point x="65" y="13"/>
      <point x="51" y="43"/>
      <point x="64" y="86" type="curve"/>
      <point x="72" y="104"/>
      <point x="68" y="117"/>
      <point x="53" y="117" type="curve" smooth="yes"/>
      <point x="27" y="117"/>
      <point x="6" y="97"/>
      <point x="-1" y="68" type="curve" smooth="yes"/>
      <point x="-14" y="20"/>
      <point x="22" y="-14"/>
      <point x="88" y="-14" type="curve" smooth="yes"/>
      <point x="155" y="-14"/>
      <point x="204" y="32"/>
      <point x="215" y="94" type="curve" smooth="yes"/>
      <point x="232" y="187"/>
      <point x="113" y="233"/>
      <point x="143" y="353" type="curve" smooth="yes"/>
      <point x="149" y="373"/>
      <point x="167" y="386"/>
      <point x="195" y="386" type="curve" smooth="yes"/>
      <point x="210" y="386"/>
      <point x="223" y="362"/>
      <point x="209" y="327" type="curve" smooth="yes"/>
      <point x="204" y="314"/>
      <point x="218" y="305"/>
      <point x="229" y="305" type="curve" smooth="yes"/>
      <point x="253" y="305"/>
      <point x="265" y="322"/>
      <point x="272" y="345" type="curve" smooth="yes"/>
      <point x="284" y="385"/>
      <point x="253" y="413"/>
      <point x="197" y="413" type="curve" smooth="yes"/>
      <point x="137" y="413"/>
      <point x="96" y="378"/>
      <point x="85" y="337" type="curve" smooth="yes"/>
      <point x="49" y="206"/>
      <point x="181" y="170"/>
    </contour>
  </outline>
</glyph>
<glyph name="t" format="2">
  <advance width="268"/>
  <unicode hex="0074"/>
  <anchor x="88" y="0" name="bottom"/>
  <anchor x="135" y="201" name="center"/>
  <anchor x="208" y="507" name="top"/>
  <anchor x="360" y="637" name="topright"/>
  <outline>
    <contour>
      <point x="67" y="-14" type="curve" smooth="yes"/>
      <point x="105" y="-14"/>
      <point x="159" y="32"/>
      <point x="210" y="95" type="curve"/>
      <point x="186" y="114" type="line"/>
      <point x="154" y="74"/>
      <point x="120" y="35"/>
      <point x="104" y="35" type="curve" smooth="yes"/>
      <point x="91" y="35"/>
      <point x="87" y="77"/>
      <point x="107" y="141" type="curve" smooth="yes"/>
      <point x="126" y="201"/>
      <point x="148" y="275"/>
      <point x="171" y="335" type="curve" smooth="yes"/>
      <point x="198" y="406"/>
      <point x="212" y="467"/>
      <point x="223" y="507" type="curve"/>
      <point x="200" y="498"/>
      <point x="168" y="490"/>
      <point x="152" y="487" type="curve"/>
      <point x="121" y="365"/>
      <point x="73" y="242"/>
      <point x="34" y="121" type="curve" smooth="yes"/>
      <point x="8" y="41"/>
      <point x="28" y="-14"/>
    </contour>
    <contour>
      <point x="33" y="369" type="line"/>
      <point x="276" y="357" type="line"/>
      <point x="290" y="406" type="line"/>
      <point x="120" y="402" type="line"/>
      <point x="37" y="382" type="line"/>
    </contour>
  </outline>
</glyph>
<glyph name="u" format="2">
  <advance width="436"/>
  <unicode hex="0075"/>
  <anchor x="184" y="0" name="bottom"/>
  <anchor x="374" y="10" name="ogonek"/>
  <anchor x="278" y="402" name="top"/>
  <anchor x="492" y="402" name="topright"/>
  <outline>
    <contour>
      <point x="419" y="417" type="curve"/>
      <point x="390" y="411"/>
      <point x="369" y="408"/>
      <point x="348" y="407" type="curve"/>
      <point x="332" y="349"/>
      <point x="294" y="225"/>
      <point x="251" y="71" type="curve" smooth="yes"/>
      <point x="238" y="24"/>
      <point x="250" y="-8"/>
      <point x="273" y="-8" type="curve" smooth="yes"/>
      <point x="322" y="-8"/>
      <point x="375" y="30"/>
      <point x="421" y="99" type="curve"/>
      <point x="405" y="114" type="line"/>
      <point x="372" y="77"/>
      <point x="334" y="46"/>
      <point x="317" y="46" type="curve" smooth="yes"/>
      <point x="303" y="46"/>
      <point x="309" y="86"/>
      <point x="324" y="141" type="curve" smooth="yes"/>
      <point x="343" y="214"/>
      <point x="383" y="319"/>
    </contour>
    <contour>
      <point x="167" y="413" type="curve" smooth="yes"/>
      <point x="128" y="413"/>
      <point x="78" y="372"/>
      <point x="29" y="297" type="curve"/>
      <point x="48" y="280" type="line"/>
      <point x="86" y="328"/>
      <point x="112" y="366"/>
      <point x="132" y="366" type="curve" smooth="yes"/>
      <point x="157" y="366"/>
      <point x="140" y="321"/>
      <point x="124" y="281" type="curve" smooth="yes"/>
      <point x="75" y="159" type="line" smooth="yes"/>
      <point x="32" y="52"/>
      <point x="40" y="-8"/>
      <point x="108" y="-8" type="curve" smooth="yes"/>
      <point x="184" y="-8"/>
      <point x="252" y="90"/>
      <point x="316" y="264" type="curve"/>
      <point x="341" y="383" type="line"/>
      <point x="274" y="182"/>
      <point x="195" y="47"/>
      <point x="142" y="44" type="curve" smooth="yes"/>
      <point x="99" y="42"/>
      <point x="107" y="85"/>
      <point x="139" y="167" type="curve" smooth="yes"/>
      <point x="203" y="329" type="line" smooth="yes"/>
      <point x="222" y="377"/>
      <point x="208" y="413"/>
    </contour>
  </outline>
</glyph>
<glyph name="v" format="2">
  <advance width="365"/>
  <unicode hex="0076"/>
  <anchor x="173" y="0" name="bottom"/>
  <anchor x="267" y="402" name="top"/>
  <outline>
    <contour>
      <point x="136" y="-8" type="curve" smooth="yes"/>
      <point x="212" y="-8"/>
      <point x="308" y="90"/>
      <point x="345" y="237" type="curve" smooth="yes"/>
      <point x="372" y="346"/>
      <point x="355" y="423"/>
      <point x="304" y="423" type="curve" smooth="yes"/>
      <point x="278" y="423"/>
      <point x="256" y="396"/>
      <point x="250" y="373" type="curve" smooth="yes"/>
      <point x="243" y="346"/>
      <point x="256" y="329"/>
      <point x="271" y="329" type="curve" smooth="yes"/>
      <point x="313" y="329"/>
      <point x="321" y="281"/>
      <point x="296" y="185" type="curve" smooth="yes"/>
      <point x="278" y="115"/>
      <point x="212" y="58"/>
      <point x="168" y="58" type="curve" smooth="yes"/>
      <point x="115" y="58"/>
      <point x="104" y="105"/>
      <point x="129" y="183" type="curve"/>
      <point x="151" y="247"/>
      <point x="196" y="264"/>
      <point x="215" y="333" type="curve" smooth="yes"/>
      <point x="228" y="380"/>
      <point x="209" y="414"/>
      <point x="168" y="414" type="curve" smooth="yes"/>
      <point x="141" y="414"/>
      <point x="83" y="367"/>
      <point x="27" y="300" type="curve"/>
      <point x="53" y="279" type="line"/>
      <point x="78" y="316"/>
      <point x="115" y="351"/>
      <point x="131" y="351" type="curve" smooth="yes"/>
      <point x="157" y="351"/>
      <point x="157" y="320"/>
      <point x="144" y="276" type="curve" smooth="yes"/>
      <point x="130" y="227"/>
      <point x="75" y="175"/>
      <point x="62" y="118" type="curve" smooth="yes"/>
      <point x="44" y="41"/>
      <point x="69" y="-8"/>
    </contour>
  </outline>
</glyph>
<glyph name="w" format="2">
  <advance width="583"/>
  <unicode hex="0077"/>
  <anchor x="269" y="0" name="bottom"/>
  <anchor x="363" y="402" name="top"/>
  <outline>
    <contour>
      <point x="162" y="-8" type="curve" smooth="yes"/>
      <point x="269" y="-8"/>
      <point x="385" y="124"/>
      <point x="411" y="320" type="curve"/>
      <point x="364" y="266" type="line"/>
      <point x="341" y="137"/>
      <point x="264" y="58"/>
      <point x="195" y="58" type="curve" smooth="yes"/>
      <point x="142" y="58"/>
      <point x="111" y="107"/>
      <point x="136" y="184" type="curve" smooth="yes"/>
      <point x="158" y="248"/>
      <point x="196" y="264"/>
      <point x="215" y="333" type="curve" smooth="yes"/>
      <point x="228" y="380"/>
      <point x="209" y="414"/>
      <point x="168" y="414" type="curve" smooth="yes"/>
      <point x="141" y="414"/>
      <point x="83" y="367"/>
      <point x="27" y="300" type="curve"/>
      <point x="53" y="279" type="line"/>
      <point x="78" y="316"/>
      <point x="115" y="351"/>
      <point x="131" y="351" type="curve" smooth="yes"/>
      <point x="157" y="351"/>
      <point x="157" y="320"/>
      <point x="144" y="276" type="curve" smooth="yes"/>
      <point x="130" y="227"/>
      <point x="91" y="185"/>
      <point x="78" y="128" type="curve" smooth="yes"/>
      <point x="60" y="51"/>
      <point x="101" y="-8"/>
    </contour>
    <contour>
      <point x="346" y="-8" type="curve" smooth="yes"/>
      <point x="449" y="-8"/>
      <point x="511" y="86"/>
      <point x="559" y="227" type="curve" smooth="yes"/>
      <point x="597" y="340"/>
      <point x="576" y="423"/>
      <point x="524" y="423" type="curve" smooth="yes"/>
      <point x="497" y="423"/>
      <point x="473" y="396"/>
      <point x="467" y="373" type="curve" smooth="yes"/>
      <point x="458" y="340"/>
      <point x="473" y="329"/>
      <point x="491" y="329" type="curve" smooth="yes"/>
      <point x="527" y="329"/>
      <point x="545" y="283"/>
      <point x="516" y="209" type="curve" smooth="yes"/>
      <point x="483" y="125"/>
      <point x="441" y="58"/>
      <point x="379" y="58" type="curve" smooth="yes"/>
      <point x="304" y="58"/>
      <point x="260" y="114"/>
      <point x="283" y="233" type="curve" smooth="yes"/>
      <point x="313" y="386"/>
      <point x="380" y="341"/>
      <point x="364" y="266" type="curve"/>
      <point x="411" y="320" type="line"/>
      <point x="428" y="427"/>
      <point x="303" y="461"/>
      <point x="260" y="261" type="curve" smooth="yes"/>
      <point x="226" y="103"/>
      <point x="263" y="-8"/>
    </contour>
  </outline>
</glyph>
<glyph name="x" format="2">
  <advance width="391"/>
  <unicode hex="0078"/>
  <anchor x="138" y="0" name="bottom"/>
  <anchor x="260" y="402" name="top"/>
  <outline>
    <contour>
      <point x="8" y="-9" type="curve" smooth="yes"/>
      <point x="53" y="-9"/>
      <point x="134" y="113"/>
      <point x="204" y="207" type="curve" smooth="yes"/>
      <point x="256" y="277"/>
      <point x="300" y="345"/>
      <point x="314" y="345" type="curve" smooth="yes"/>
      <point x="341" y="345"/>
      <point x="354" y="324"/>
      <point x="353" y="304" type="curve"/>
      <point x="405" y="366" type="line"/>
      <point x="391" y="394"/>
      <point x="368" y="414"/>
      <point x="351" y="414" type="curve" smooth="yes"/>
      <point x="316" y="414"/>
      <point x="230" y="290"/>
      <point x="154" y="192" type="curve" smooth="yes"/>
      <point x="103" y="126"/>
      <point x="63" y="64"/>
      <point x="54" y="64" type="curve" smooth="yes"/>
      <point x="42" y="64"/>
      <point x="35" y="87"/>
      <point x="28" y="106" type="curve"/>
      <point x="-34" y="59" type="line"/>
      <point x="-24" y="20"/>
      <point x="-6" y="-9"/>
    </contour>
    <contour>
      <point x="225" y="-9" type="curve" smooth="yes"/>
      <point x="263" y="-9"/>
      <point x="325" y="35"/>
      <point x="357" y="75" type="curve"/>
      <point x="336" y="96" type="line"/>
      <point x="319" y="74"/>
      <point x="282" y="49"/>
      <point x="261" y="49" type="curve" smooth="yes"/>
      <point x="252" y="49"/>
      <point x="244" y="113"/>
      <point x="231" y="188" type="curve" smooth="yes"/>
      <point x="212" y="291"/>
      <point x="199" y="414"/>
      <point x="165" y="414" type="curve" smooth="yes"/>
      <point x="133" y="414"/>
      <point x="71" y="366"/>
      <point x="32" y="320" type="curve"/>
      <point x="56" y="299" type="line"/>
      <point x="85" y="337"/>
      <point x="102" y="344"/>
      <point x="121" y="344" type="curve" smooth="yes"/>
      <point x="134" y="344"/>
      <point x="140" y="284"/>
      <point x="152" y="213" type="curve" smooth="yes"/>
      <point x="169" y="112"/>
      <point x="180" y="-9"/>
    </contour>
  </outline>
</glyph>
<glyph name="y" format="2">
  <advance width="403"/>
  <unicode hex="0079"/>
  <anchor x="166" y="0" name="bottom"/>
  <anchor x="260" y="402" name="top"/>
  <outline>
    <contour>
      <point x="50" y="-228" type="curve" smooth="yes"/>
      <point x="108" y="-228"/>
      <point x="198" y="-84"/>
      <point x="283" y="50" type="curve" smooth="yes"/>
      <point x="338" y="138"/>
      <point x="374" y="232"/>
      <point x="383" y="279" type="curve" smooth="yes"/>
      <point x="407" y="358"/>
      <point x="390" y="414"/>
      <point x="343" y="414" type="curve" smooth="yes"/>
      <point x="312" y="414"/>
      <point x="286" y="394"/>
      <point x="280" y="366" type="curve" smooth="yes"/>
      <point x="273" y="337"/>
      <point x="293" y="325"/>
      <point x="318" y="325" type="curve" smooth="yes"/>
      <point x="375" y="325"/>
      <point x="348" y="219"/>
      <point x="255" y="68" type="curve" smooth="yes"/>
      <point x="184" y="-48"/>
      <point x="101" y="-193"/>
      <point x="61" y="-193" type="curve" smooth="yes"/>
      <point x="41" y="-193"/>
      <point x="27" y="-179"/>
      <point x="35" y="-144" type="curve" smooth="yes"/>
      <point x="41" y="-126"/>
      <point x="36" y="-105"/>
      <point x="24" y="-105" type="curve" smooth="yes"/>
      <point x="-12" y="-105"/>
      <point x="-32" y="-116"/>
      <point x="-38" y="-145" type="curve" smooth="yes"/>
      <point x="-50" y="-194"/>
      <point x="-13" y="-228"/>
    </contour>
    <contour>
      <point x="17" y="300" type="curve"/>
      <point x="43" y="279" type="line"/>
      <point x="71" y="320"/>
      <point x="90" y="342"/>
      <point x="113" y="342" type="curve" smooth="yes"/>
      <point x="149" y="342"/>
      <point x="190" y="210"/>
      <point x="235" y="-14" type="curve"/>
      <point x="287" y="58" type="line"/>
      <point x="246" y="277"/>
      <point x="198" y="414"/>
      <point x="148" y="414" type="curve" smooth="yes"/>
      <point x="120" y="414"/>
      <point x="66" y="367"/>
    </contour>
  </outline>
</glyph>
<glyph name="z" format="2">
  <advance width="356"/>
  <unicode hex="007A"/>
  <anchor x="140" y="0" name="bottom"/>
  <anchor x="187" y="201" name="center"/>
  <anchor x="234" y="402" name="top"/>
  <outline>
    <contour>
      <point x="-7" y="10" type="line"/>
      <point x="369" y="383" type="line"/>
      <point x="345" y="396" type="line"/>
      <point x="-33" y="23" type="line"/>
    </contour>
    <contour>
      <point x="-1" y="0" type="line"/>
      <point x="15" y="18"/>
      <point x="41" y="28"/>
      <point x="59" y="28" type="curve" smooth="yes"/>
      <point x="73" y="28"/>
      <point x="87" y="23"/>
      <point x="105" y="16" type="curve" smooth="yes"/>
      <point x="136" y="3"/>
      <point x="165" y="-7"/>
      <point x="186" y="-8" type="curve" smooth="yes"/>
      <point x="223" y="-11"/>
      <point x="255" y="17"/>
      <point x="281" y="58" type="curve" smooth="yes"/>
      <point x="321" y="128" type="line"/>
      <point x="300" y="138" type="line"/>
      <point x="269" y="94" type="line" smooth="yes"/>
      <point x="254" y="71"/>
      <point x="233" y="45"/>
      <point x="205" y="47" type="curve" smooth="yes"/>
      <point x="194" y="48"/>
      <point x="177" y="56"/>
      <point x="160" y="63" type="curve" smooth="yes"/>
      <point x="140" y="72"/>
      <point x="118" y="81"/>
      <point x="101" y="83" type="curve" smooth="yes"/>
      <point x="53" y="86"/>
      <point x="-3" y="61"/>
      <point x="-33" y="23" type="curve"/>
    </contour>
    <contour>
      <point x="61" y="267" type="line"/>
      <point x="90" y="311" type="line" smooth="yes"/>
      <point x="103" y="334"/>
      <point x="121" y="359"/>
      <point x="145" y="357" type="curve" smooth="yes"/>
      <point x="155" y="357"/>
      <point x="172" y="349"/>
      <point x="188" y="342" type="curve" smooth="yes"/>
      <point x="207" y="334"/>
      <point x="228" y="324"/>
      <point x="243" y="323" type="curve" smooth="yes"/>
      <point x="288" y="319"/>
      <point x="332" y="339"/>
      <point x="369" y="383" type="curve"/>
      <point x="340" y="406" type="line"/>
      <point x="326" y="388"/>
      <point x="295" y="377"/>
      <point x="270" y="379" type="curve" smooth="yes"/>
      <point x="265" y="379"/>
      <point x="254" y="384"/>
      <point x="240" y="390" type="curve" smooth="yes"/>
      <point x="220" y="400"/>
      <point x="193" y="412"/>
      <point x="172" y="414" type="curve" smooth="yes"/>
      <point x="129" y="417"/>
      <point x="99" y="389"/>
      <point x="75" y="348" type="curve" smooth="yes"/>
      <point x="37" y="277" type="line"/>
    </contour>
  </outline>
</glyph>
<glyph name="braceleft" format="2">
  <advance width="371"/>
  <unicode hex="007B"/>
  <outline>
    <contour>
      <point x="232" y="-144" type="curve"/>
      <point x="242" y="-108" type="line"/>
      <point x="186" y="-108"/>
      <point x="157" y="-70"/>
      <point x="172" y="-16" type="curve" smooth="yes"/>
      <point x="221" y="157" type="line" smooth="yes"/>
      <point x="233" y="201"/>
      <point x="212" y="252"/>
      <point x="171" y="279" type="curve"/>
      <point x="228" y="306"/>
      <point x="277" y="357"/>
      <point x="289" y="401" type="curve" smooth="yes"/>
      <point x="338" y="574" type="line" smooth="yes"/>
      <point x="353" y="628"/>
      <point x="404" y="666"/>
      <point x="460" y="666" type="curve"/>
      <point x="470" y="702" type="line"/>
      <point x="379" y="702"/>
      <point x="300" y="649"/>
      <point x="279" y="574" type="curve" smooth="yes"/>
      <point x="226" y="385" type="line" smooth="yes"/>
      <point x="210" y="329"/>
      <point x="158" y="289"/>
      <point x="84" y="289" type="curve"/>
      <point x="78" y="269" type="line"/>
      <point x="152" y="269"/>
      <point x="182" y="229"/>
      <point x="166" y="173" type="curve" smooth="yes"/>
      <point x="113" y="-16" type="line" smooth="yes"/>
      <point x="92" y="-91"/>
      <point x="141" y="-144"/>
    </contour>
  </outline>
</glyph>
<glyph name="germandbls" format="2">
  <advance width="451"/>
  <unicode hex="00DF"/>
  <anchor x="202" y="0" name="bottom"/>
  <anchor x="396" y="637" name="top"/>
  <outline>
    <contour>
      <point x="-137" y="-234" type="curve" smooth="yes"/>
      <point x="-112" y="-234"/>
      <point x="-71" y="-211"/>
      <point x="-37" y="-178" type="curve" smooth="yes"/>
      <point x="82" y="-68"/>
      <point x="139" y="118"/>
      <point x="167" y="241" type="curve" smooth="yes"/>
      <point x="184" y="323"/>
      <point x="203" y="414"/>
      <point x="229" y="498" type="curve" smooth="yes"/>
      <point x="252" y="574"/>
      <point x="302" y="620"/>
      <point x="343" y="620" type="curve" smooth="yes"/>
      <point x="387" y="620"/>
      <point x="406" y="581"/>
      <point x="394" y="542" type="curve"/>
      <point x="471" y="561" type="line"/>
      <point x="484" y="610"/>
      <point x="440" y="643"/>
      <point x="365" y="643" type="curve" smooth="yes"/>
      <point x="264" y="643"/>
      <point x="168" y="559"/>
      <point x="140" y="434" type="curve" smooth="yes"/>
      <point x="129" y="383"/>
      <point x="112" y="318"/>
      <point x="100" y="254" type="curve" smooth="yes"/>
      <point x="79" y="149"/>
      <point x="45" y="-49"/>
      <point x="-36" y="-141" type="curve" smooth="yes"/>
      <point x="-46" y="-153"/>
      <point x="-58" y="-155"/>
      <point x="-67" y="-155" type="curve" smooth="yes"/>
      <point x="-75" y="-155"/>
      <point x="-78" y="-151"/>
      <point x="-83" y="-144" type="curve" smooth="yes"/>
      <point x="-87" y="-138"/>
      <point x="-91" y="-132"/>
      <point x="-102" y="-132" type="curve" smooth="yes"/>
      <point x="-134" y="-132"/>
      <point x="-167" y="-163"/>
      <point x="-176" y="-205" type="curve" smooth="yes"/>
      <point x="-179" y="-220"/>
      <point x="-164" y="-234"/>
    </contour>
    <contour>
      <point x="18" y="369" type="line"/>
      <point x="179" y="357" type="line"/>
      <point x="199" y="406" type="line"/>
      <point x="109" y="402" type="line"/>
      <point x="22" y="382" type="line"/>
    </contour>
    <contour>
      <point x="344" y="77" type="curve" smooth="yes"/>
      <point x="332" y="36"/>
      <point x="310" y="13"/>
      <point x="282" y="13" type="curve" smooth="yes"/>
      <point x="260" y="13"/>
      <point x="243" y="43"/>
      <point x="256" y="86" type="curve"/>
      <point x="264" y="104"/>
      <point x="260" y="117"/>
      <point x="245" y="117" type="curve" smooth="yes"/>
      <point x="213" y="117"/>
      <point x="195" y="97"/>
      <point x="188" y="68" type="curve" smooth="yes"/>
      <point x="175" y="20"/>
      <point x="211" y="-14"/>
      <point x="275" y="-14" type="curve" smooth="yes"/>
      <point x="349" y="-14"/>
      <point x="398" y="40"/>
      <point x="409" y="102" type="curve" smooth="yes"/>
      <point x="426" y="195"/>
      <point x="292" y="221"/>
      <point x="322" y="341" type="curve"/>
      <point x="258" y="333" type="line"/>
      <point x="220" y="192"/>
      <point x="372" y="182"/>
    </contour>
    <contour>
      <point x="258" y="333" type="curve"/>
      <point x="322" y="341" type="line"/>
      <point x="364" y="495"/>
      <point x="432" y="415"/>
      <point x="471" y="561" type="curve"/>
      <point x="394" y="542" type="line"/>
      <point x="357" y="414"/>
      <point x="286" y="444"/>
    </contour>
  </outline>
</glyph>
<glyph name="circumflexcomb" format="2">
  <unicode hex="0302"/>
  <anchor x="151" y="384" name="_top"/>
  <anchor x="151" y="621" name="top"/>
  <outline>
    <contour>
      <point x="257" y="450" type="line"/>
      <point x="271" y="462" type="line"/>
      <point x="181" y="609" type="line" smooth="yes"/>
      <point x="171" y="625"/>
      <point x="131" y="625"/>
      <point x="121" y="609" type="curve" smooth="yes"/>
      <point x="31" y="462" type="line"/>
      <point x="45" y="450" type="line"/>
      <point x="151" y="556" type="line"/>
    </contour>
  </outline>
</glyph>
<glyph name="macroncomb" format="2">
  <unicode hex="0304"/>
  <anchor x="180" y="384" name="_top"/>
  <anchor x="180" y="538" name="top"/>
  <outline>
    <contour>
      <point x="55" y="538" type="line"/>
      <point x="55" y="493" type="line"/>
      <point x="305" y="493" type="line"/>
      <point x="305" y="538" type="line"/>
    </contour>
  </outline>
</glyph>
<glyph name="horncomb" format="2">
  <unicode hex="031B"/>
  <anchor x="91" y="384" name="_topright"/>
  <anchor x="235" y="694" name="topright"/>
  <outline>
    <contour>
      <point x="111" y="424" type="line"/>
      <point x="182" y="424"/>
      <point x="215" y="457"/>
      <point x="215" y="503" type="curve" smooth="yes"/>
      <point x="215" y="694" type="line"/>
      <point x="162" y="694" type="line"/>
      <point x="162" y="634"/>
      <point x="162" y="522"/>
      <point x="162" y="506" type="curve" smooth="yes"/>
      <point x="162" y="474"/>
      <point x="141" y="452"/>
      <point x="111" y="452" type="curve"/>
    </contour>
  </outline>
</glyph>
<glyph name="caroncomb.case" format="2">
  <anchor x="151" y="616" name="_top"/>
  <anchor x="151" y="794" name="top"/>
  <outline>
    <contour>
      <point x="27" y="794" type="line"/>
      <point x="13" y="782" type="line"/>
      <point x="124" y="671" type="line" smooth="yes"/>
      <point x="137" y="658"/>
      <point x="165" y="658"/>
      <point x="178" y="671" type="curve" smooth="yes"/>
      <point x="289" y="782" type="line"/>
      <point x="275" y="794" type="line"/>
      <point x="151" y="734" type="line"/>
    </contour>
  </outline>
</glyph>
<glyph name="tonos.case" format="2">
  <advance width="180"/>
  <anchor x="161" y="616" name="_topleft"/>
  <outline>
    <contour>
      <point x="33" y="439" type="line"/>
      <point x="52" y="435" type="line"/>
      <point x="127" y="602" type="line"/>
      <point x="130" y="611"/>
      <point x="110" y="617"/>
      <point x="90" y="622" type="curve" smooth="yes"/>
      <point x="68" y="625"/>
      <point x="52" y="621"/>
      <point x="51" y="612" type="curve"/>
    </contour>
  </outline>
</glyph>
